<?xml version="1.0" encoding="utf-8"?>
<!-- Generator: Adobe Illustrator 27.0.0, SVG Export Plug-In . SVG Version: 6.00 Build 0)  -->
<svg version="1.1" id="Calque_1" xmlns="http://www.w3.org/2000/svg" xmlns:xlink="http://www.w3.org/1999/xlink" x="0px" y="0px"
	 viewBox="0 0 1242 359.2" style="enable-background:new 0 0 1242 359.2;" xml:space="preserve">
<style type="text/css">
	.st0{fill:none;}
	.st1{fill:#FFFFFF;}
</style>
<rect x="0" y="0" class="st0" width="1242" height="359.2"/>
<g>
	<g>
		<polygon class="st1" points="834.9,270.4 844.7,270.4 839.7,259.5 		"/>
		<path class="st1" d="M1034.1,269.7h-8.1v8.8h8.1c3.1,0,6.9-0.8,6.9-4.5C1041,270.3,1036.7,269.7,1034.1,269.7z"/>
		<polygon class="st1" points="1059.2,270.4 1069.1,270.4 1064.1,259.5 		"/>
		<ellipse class="st1" cx="906.4" cy="164" rx="30.7" ry="30.7"/>
		<path class="st1" d="M1039.6,260.8c0-3.2-3-3.9-5.5-3.9h-8.1v7.8h8.1C1037.8,264.7,1039.6,263.4,1039.6,260.8z"/>
		<path class="st1" d="M999,256.8c-6.2,0-11.2,4.8-11.2,10.8c0,6,5,10.9,11.2,10.9c6.2,0,11.2-4.9,11.2-10.9
			C1010.2,261.7,1005.2,256.8,999,256.8z"/>
		<path class="st1" d="M1172.2,37.9H121.2c-20.4,0-37.9,14.4-41.7,34.4l-41,211.1c-3.8,19.7,11.3,38,31.3,38h1050.9
			c20.4,0,37.9-14.4,41.7-34.4l41-211.1C1207.3,56.2,1192.2,37.9,1172.2,37.9z M1012.3,82.3c0-3,2.5-5.5,5.5-5.5h13.6
			c3,0,5.5,2.5,5.5,5.5v10.8c0,3-2.5,5.5-5.5,5.5h-13.6c-3,0-5.5-2.5-5.5-5.5V82.3z M263.3,214h-115c-4.8,0-7.5-5.7-4.5-9.3
			l17.6-20.9h-58.1c-4.8,0-7.5-5.7-4.5-9.3L180.6,78c1.2-1.5,2.9-2.1,4.6-2.1c2.5,0,5.1,1.5,6,4.3l16.8,48.8l17.5-20.7
			c3.1-3.6,9-2.4,10.6,2.2l32.9,95.6C270.4,209.9,267.5,214,263.3,214z M387,238.5c0,3.1-2.5,5.6-5.6,5.6h-11.6
			c-3.1,0-5.6-2.5-5.6-5.6v-32.3c-0.5,0.4-1.1,0.8-1.6,1.2c-4.2,2.9-8.8,5.1-13.7,6.6c-4.9,1.5-10.1,2.3-15.4,2.3
			c-9.5,0-18.2-2.3-26-7c-7.8-4.7-14-11-18.5-19c-4.5-8-6.8-16.8-6.8-26.4c0-9.6,2.3-18.4,6.9-26.4c4.6-8,10.8-14.3,18.6-18.9
			c7.8-4.6,18.6-7,30.2-7c16.7,0,37.3,8.5,46.7,22.6c1.4,2.1,2.4,4.4,2.4,7V238.5z M492.1,172.5c0,28.4-16.1,43.7-45,43.7
			c-29.3,0-45-17.5-45-43.7v-52.8c0-3.2,2.6-5.9,5.9-5.9h11.3c3.2,0,5.9,2.6,5.9,5.9v52.5c0,16.3,9.9,23,22,23s22-6.8,22-23v-52.5
			c0-3.2,2.6-5.9,5.9-5.9h11.3c3.2,0,5.9,2.6,5.9,5.9V172.5z M596,208.2c0,3.2-2.5,5.8-5.7,5.8h-11.6c-3.1,0-5.7-2.6-5.7-5.8v-5.7
			c-9.2,9.3-22.8,13.7-35.9,13.7c-19.4,0-35.2-12-35.2-33.3c0-21.3,18.8-32,39.2-32c13.4,0,21.2,1.6,31.7,4.9l0-3.1
			c0-13-13.1-19.4-24.5-19.4c-10,0-16,1.8-24.9,5c-2.8,1-5.9,0-7.2-2.7l-3.8-7.9c-1.5-2.9-0.2-6.6,2.7-7.9c12-5.6,21.6-7.8,34.3-7.8
			c18.1,0,46.5,11.3,46.5,43.7V208.2z M674.3,128.4c0,3-2.4,5.4-5.4,5.5c-10.7,0.3-23.7,2.7-34.6,9v65.6c0,3.1-2.5,5.6-5.6,5.6
			h-12.1c-3.1,0-5.6-2.5-5.6-5.6l0-76c0-1.6,0.8-3.2,2.1-4.1c15-10,36-16.4,55.4-16.5c3.1,0,5.6,2.5,5.6,5.6L674.3,128.4z
			 M756.8,210.6c-1.4,0.8-2.9,1.6-4.4,2.3c-4.7,2.2-10.3,3.3-16.8,3.3c-8.1,0-15-1.9-20.8-5.8s-10.3-9-13.4-15.6
			c-3.1-6.6-4.7-13.8-4.7-21.8v-38.6h-10.6c-3.2,0-5.9-2.6-5.9-5.9v-8.8c0-3.2,2.6-5.9,5.9-5.9h10.6V91.5c0-3.2,2.6-5.9,5.9-5.9
			h11.2c3.2,0,5.9,2.6,5.9,5.9v22.4h29.2c3.2,0,5.9,2.6,5.9,5.9v8.8c0,3.2-2.6,5.9-5.9,5.9h-29.2v38.5c0,4.3,0.7,8,2,11.2
			c1.3,3.2,3.3,5.7,6,7.4c2.6,1.7,5.8,2.6,9.5,2.6c3.1,0,5.9-0.5,8.2-1.6c0.6-0.3,1.1-0.5,1.6-0.8c2.8-1.6,6.5-0.3,7.9,2.6l4.3,8.7
			C760.4,205.7,759.4,209,756.8,210.6z M766.6,208.2v-11.4c0-2.3,0.9-4.6,2.5-6.3l52.2-55h-48c-3.2,0-5.9-2.6-5.9-5.9v-9.9
			c0-3.2,2.6-5.9,5.9-5.9h71.5c3.2,0,5.9,2.6,5.9,5.9v11.4c0,2.3-0.9,4.6-2.5,6.3l-52.1,55h48.8c3.2,0,5.9,2.6,5.9,5.9v9.9
			c0,3.2-2.6,5.9-5.9,5.9h-72.5C769.2,214,766.6,211.4,766.6,208.2z M810.5,283.5c-4.1,0-8.4-1.7-11.2-4.6c-0.5-0.5-0.7-1.4-0.3-2
			l0.9-1.5c0.3-0.4,0.7-0.7,1.2-0.8c0.5-0.1,1,0.1,1.4,0.5c1.9,1.8,5.1,3.3,8,3.3c3,0,6.3-1,6.3-3.7c0-2.7-2-3.6-6.6-5
			c-4.4-1.3-9.9-3-9.9-9.5c0-5,4.4-8.4,11-8.4c3.1,0,6.6,1,9,2.6c0.7,0.5,1,1.4,0.6,2.1l-0.8,1.5c-0.2,0.4-0.6,0.7-1.1,0.9
			c-0.5,0.1-0.9,0-1.3-0.2c-1.7-1.1-4.2-1.8-6.5-1.8c-2.6,0-5.7,0.8-5.7,3.1c0,2.6,2,3.5,6.5,4.8c4.5,1.4,10.1,3.1,10,9.8
			C821.9,279.9,817.3,283.5,810.5,283.5z M855,282.7c-0.3,0.5-0.8,0.8-1.4,0.8h-1.9c-0.7,0-1.2-0.4-1.5-1l-3.2-7.1h-14.4l-3.2,7.1
			c-0.3,0.6-0.9,1-1.5,1H826c-0.6,0-1.1-0.3-1.4-0.8c-0.3-0.5-0.4-1.1-0.1-1.6l12.8-28.2c0.3-0.6,0.9-1,1.5-1h1.8
			c0.7,0,1.2,0.4,1.5,1l12.9,28.2C855.3,281.6,855.3,282.2,855,282.7z M865.2,281.8c0,0.9-0.7,1.7-1.7,1.7h-1.7
			c-0.9,0-1.7-0.7-1.7-1.7v-28.2c0-0.9,0.7-1.7,1.7-1.7h1.7c0.9,0,1.7,0.7,1.7,1.7V281.8z M900.4,281.8c0,0.9-0.7,1.7-1.7,1.7h-2
			c-0.5,0-1-0.3-1.3-0.7l-15.8-21.5v20.6c0,0.9-0.7,1.7-1.7,1.7h-1.7c-0.9,0-1.7-0.7-1.7-1.7v-28.2c0-0.9,0.7-1.7,1.7-1.7h2
			c0.5,0,1,0.3,1.3,0.7l15.8,21.6v-20.6c0-0.9,0.7-1.7,1.7-1.7h1.7c0.9,0,1.7,0.7,1.7,1.7V281.8z M929.5,255.2
			c0,0.9-0.7,1.7-1.7,1.7H920v24.9c0,0.9-0.7,1.7-1.7,1.7h-1.7c-0.9,0-1.7-0.7-1.7-1.7v-24.9h-7.9c-0.9,0-1.7-0.7-1.7-1.7v-1.7
			c0-0.9,0.7-1.7,1.7-1.7h20.8c0.9,0,1.7,0.7,1.7,1.7V255.2z M941.9,270.3c0,0.9-0.7,1.7-1.7,1.7h-9c-0.9,0-1.7-0.7-1.7-1.7V269
			c0-0.9,0.7-1.7,1.7-1.7h9c0.9,0,1.7,0.7,1.7,1.7V270.3z M906.4,216.3c-30.1,0-53.2-23.1-53.2-52.3c0-30.2,24.4-52.3,53.2-52.3
			s53.2,22.1,53.2,52.3C959.6,193.2,936.5,216.3,906.4,216.3z M977,278.2c0,0.5-0.2,1-0.6,1.3c-3,2.6-7.1,4.1-11.1,4.1
			c-9,0-16.3-7.1-16.3-15.8c0-8.7,7.3-15.8,16.3-15.8c4.1,0,8,1.5,11,4.1c0.7,0.6,0.8,1.6,0.2,2.3l-1,1.3c-0.3,0.4-0.7,0.6-1.2,0.6
			c-0.5,0-0.9-0.1-1.2-0.4c-2.1-1.9-4.9-2.9-7.8-2.9c-6.2,0-11.3,4.9-11.3,10.9c0,6,5.1,10.9,11.3,10.9c2.4,0,4.8-0.7,6.7-2.1v-5.2
			h-3.4c-0.9,0-1.7-0.7-1.7-1.7v-1.7c0-0.9,0.7-1.7,1.7-1.7h5c0,0,0,0,0,0h1.5c0.9,0,1.7,0.7,1.7,1.7V278.2z M971.7,208.5V81.3
			c0-3.1,2.5-5.6,5.6-5.6H989c3.1,0,5.6,2.5,5.6,5.6v127.1c0,3.1-2.5,5.6-5.6,5.6h-11.8C974.2,214,971.7,211.5,971.7,208.5z
			 M999,283.5c-9,0-16.3-7.1-16.3-15.8c0-8.7,7.3-15.8,16.3-15.8c9,0,16.3,7.1,16.3,15.8C1015.3,276.4,1008,283.5,999,283.5z
			 M1013.2,208.5v-88.9c0-3.1,2.5-5.6,5.6-5.6h11.6c3.1,0,5.6,2.5,5.6,5.6v88.9c0,3.1-2.5,5.6-5.6,5.6h-11.6
			C1015.7,214,1013.2,211.5,1013.2,208.5z M1034.3,283.5h-11.6c-0.9,0-1.7-0.7-1.7-1.7v-28.2c0-0.9,0.7-1.7,1.7-1.7h11.6
			c6.5,0,10.5,3.3,10.5,8.7c0,2.6-0.9,4.8-2.6,6.2c2.6,1.5,4.1,4.1,4.1,7.4C1046.1,280,1041.7,283.5,1034.3,283.5z M1079.4,282.7
			c-0.3,0.5-0.8,0.8-1.4,0.8h-1.9c-0.7,0-1.2-0.4-1.5-1l-3.2-7.1H1057l-3.2,7.1c-0.3,0.6-0.9,1-1.5,1h-1.9c-0.6,0-1.1-0.3-1.4-0.8
			c-0.3-0.5-0.4-1.1-0.1-1.6l12.8-28.2c0.3-0.6,0.9-1,1.5-1h1.8c0.7,0,1.2,0.4,1.5,1l12.9,28.2
			C1079.7,281.6,1079.7,282.2,1079.4,282.7z M1066.5,194.8c-3.1-6.6-4.7-13.8-4.7-21.8v-38.6h-10.6c-3.2,0-5.8-2.6-5.8-5.8v-8.8
			c0-3.2,2.6-5.8,5.8-5.8h10.6V91.5c0-3.2,2.6-5.8,5.8-5.8h11.1c3.2,0,5.8,2.6,5.8,5.8v22.4h29.2c3.2,0,5.8,2.6,5.8,5.8v8.8
			c0,3.2-2.6,5.8-5.8,5.8h-29.2v38.5c0,4.3,0.7,8,2,11.2c1.3,3.2,3.3,5.7,6,7.4c2.6,1.7,5.8,2.6,9.5,2.6c3.1,0,5.9-0.5,8.2-1.6
			c0.6-0.3,1.1-0.5,1.6-0.8c2.8-1.6,6.4-0.3,7.9,2.6l4.3,8.7c1.4,2.7,0.4,6.1-2.3,7.7c-1.4,0.8-2.9,1.6-4.4,2.3
			c-4.7,2.2-10.3,3.3-16.8,3.3c-8,0-15-1.9-20.8-5.8S1069.6,201.3,1066.5,194.8z M1089.5,281.8c0,0.9-0.8,1.7-1.7,1.7h-1.7
			c-0.9,0-1.7-0.7-1.7-1.7v-28.2c0-0.9,0.7-1.7,1.7-1.7h1.7c0.9,0,1.7,0.7,1.7,1.7V281.8z M1124.7,281.8c0,0.9-0.7,1.7-1.7,1.7h-2
			c-0.5,0-1-0.3-1.3-0.7l-15.8-21.5v20.6c0,0.9-0.7,1.7-1.7,1.7h-1.7c-0.9,0-1.7-0.7-1.7-1.7v-28.2c0-0.9,0.7-1.7,1.7-1.7h2
			c0.5,0,1,0.3,1.3,0.7l15.8,21.6v-20.6c0-0.9,0.7-1.7,1.7-1.7h1.7c0.9,0,1.7,0.7,1.7,1.7V281.8z"/>
		<polygon class="st1" points="105.2,177.3 217.7,177.3 185.2,82.7 		"/>
		<path class="st1" d="M336.6,132.8c-5.6,0-10.8,1.4-15.6,4.3c-4.8,2.9-8.7,6.7-11.5,11.5c-2.8,4.8-4.2,9.9-4.2,15.4
			c0,5.5,1.4,10.7,4.2,15.5c2.8,4.8,6.7,8.6,11.5,11.5c4.8,2.9,10,4.3,15.6,4.3c5.8,0,11.1-1.4,16-4.2c4.8-2.8,8.6-6.7,11.4-11.5
			c0.1-0.2,0.2-0.4,0.3-0.7v-33.6C358.6,138.2,349.5,132.8,336.6,132.8z"/>
		<path class="st1" d="M546.2,168.2c-14.3,0-21.4,5-21.4,14.8c0,7.2,5.7,14.2,18.6,14.2c13.4,0,24.7-6,29.7-14.4l-0.2-8.3
			C567.6,171.4,557.7,168.2,546.2,168.2z"/>
	</g>
</g>
</svg>
