<?xml version="1.0" encoding="utf-8"?>
<!-- Generator: Adobe Illustrator 26.5.0, SVG Export Plug-In . SVG Version: 6.00 Build 0)  -->
<svg version="1.1" id="Calque_1" xmlns="http://www.w3.org/2000/svg" xmlns:xlink="http://www.w3.org/1999/xlink" x="0px" y="0px"
	 viewBox="0 0 1242 359.2" style="enable-background:new 0 0 1242 359.2;" xml:space="preserve">
<style type="text/css">
	.st0{fill:none;}
	.st1{fill:#FFEB00;}
	.st2{fill:#FFFFFF;}
</style>
<rect x="0" y="0" class="st0" width="1242" height="359.2"/>
<path class="st1" d="M1120.7,321.3H69.8c-20.1,0-35.1-18.3-31.3-38l41-211.1c3.9-20,21.4-34.4,41.7-34.4h1050.9
	c20.1,0,35.1,18.3,31.3,38l-41,211.1C1158.6,306.9,1141.1,321.3,1120.7,321.3z"/>
<g>
	<g>
		<path d="M269,205.9l-32.9-95.6c-1.6-4.6-7.5-5.8-10.6-2.2L208,128.9l16.1,46.8c1.4,4-1.5,8.1-5.7,8.1h-56.8l-17.7,20.9
			c-3.1,3.7-0.4,9.3,4.5,9.3h114.9C267.5,214,270.4,209.9,269,205.9z"/>
	</g>
	<path class="st2" d="M191.2,80.1l32.9,95.6c1.4,4-1.5,8.1-5.7,8.1H103.4c-4.8,0-7.5-5.7-4.5-9.3l81.6-96.5
		C183.7,74.3,189.6,75.5,191.2,80.1z"/>
</g>
<path d="M811.9,264.9c-4.5-1.4-6.5-2.2-6.5-4.8c0-2.3,3.1-3.1,5.7-3.1c2.3,0,4.8,0.7,6.5,1.8c0.4,0.3,0.9,0.3,1.3,0.2
	c0.5-0.1,0.8-0.4,1.1-0.9l0.8-1.5c0.4-0.8,0.1-1.7-0.6-2.1c-2.4-1.6-5.9-2.6-9-2.6c-6.6,0-11,3.4-11,8.4c0,6.5,5.5,8.2,9.9,9.5
	c4.6,1.4,6.6,2.3,6.6,5c0,2.8-3.2,3.7-6.3,3.7c-2.9,0-6.1-1.6-8-3.3c-0.4-0.4-0.9-0.6-1.4-0.5c-0.5,0.1-1,0.4-1.2,0.8l-0.9,1.5
	c-0.4,0.7-0.3,1.5,0.3,2c2.9,2.8,7.2,4.6,11.2,4.6c6.9,0,11.5-3.6,11.5-8.8C822,267.9,816.4,266.3,811.9,264.9"/>
<path d="M842.2,252.9c-0.3-0.6-0.9-1-1.5-1h-1.8c-0.7,0-1.2,0.4-1.5,1l-12.8,28.2c-0.2,0.5-0.2,1.1,0.1,1.6c0.3,0.5,0.8,0.8,1.4,0.8
	h1.9c0.7,0,1.3-0.4,1.5-1l3.2-7.1H847l3.2,7.1c0.3,0.6,0.9,1,1.5,1h1.9c0.6,0,1.1-0.3,1.4-0.8c0.3-0.5,0.3-1.1,0.1-1.6L842.2,252.9z
	 M834.9,270.4l4.9-10.8l4.9,10.8H834.9z"/>
<path d="M863.5,251.9h-1.7c-0.9,0-1.7,0.7-1.7,1.7v28.2c0,0.9,0.7,1.7,1.7,1.7h1.7c0.9,0,1.7-0.7,1.7-1.7v-28.2
	C865.2,252.6,864.4,251.9,863.5,251.9"/>
<path d="M898.7,251.9h-1.7c-0.9,0-1.7,0.7-1.7,1.7v20.6l-15.8-21.6c-0.3-0.4-0.8-0.7-1.3-0.7h-2c-0.9,0-1.7,0.7-1.7,1.7v28.2
	c0,0.9,0.7,1.7,1.7,1.7h1.7c0.9,0,1.7-0.7,1.7-1.7v-20.6l15.8,21.5c0.3,0.4,0.8,0.7,1.3,0.7h2c0.9,0,1.7-0.7,1.7-1.7v-28.2
	C900.4,252.6,899.6,251.9,898.7,251.9"/>
<path d="M927.8,251.9h-20.8c-0.9,0-1.7,0.7-1.7,1.7v1.7c0,0.9,0.7,1.7,1.7,1.7h7.9v24.9c0,0.9,0.7,1.7,1.7,1.7h1.7
	c0.9,0,1.7-0.7,1.7-1.7v-24.9h7.9c0.9,0,1.7-0.7,1.7-1.7v-1.7C929.5,252.6,928.8,251.9,927.8,251.9"/>
<path d="M940.2,267.3h-9c-0.9,0-1.7,0.7-1.7,1.7v1.4c0,0.9,0.7,1.7,1.7,1.7h9c0.9,0,1.7-0.7,1.7-1.7V269
	C941.9,268,941.2,267.3,940.2,267.3"/>
<path d="M975.3,266.3h-1.5c0,0,0,0,0,0h-5c-0.9,0-1.7,0.7-1.7,1.7v1.7c0,0.9,0.7,1.7,1.7,1.7h3.4v5.2c-2,1.3-4.3,2.1-6.7,2.1
	c-6.2,0-11.3-4.9-11.3-10.9c0-6,5.1-10.9,11.3-10.9c2.9,0,5.7,1.1,7.8,2.9c0.3,0.3,0.8,0.5,1.2,0.4c0.5,0,0.9-0.3,1.2-0.6l1-1.3
	c0.6-0.7,0.5-1.7-0.2-2.3c-3-2.7-7-4.1-11-4.1c-9,0-16.3,7.1-16.3,15.8c0,8.7,7.3,15.8,16.3,15.8c4.1,0,8.1-1.5,11.1-4.1
	c0.4-0.3,0.6-0.8,0.6-1.3v-10.2C977,267,976.2,266.3,975.3,266.3"/>
<path d="M999,251.9c-9,0-16.3,7.1-16.3,15.8c0,8.7,7.3,15.8,16.3,15.8c9,0,16.3-7.1,16.3-15.8C1015.3,258.9,1008,251.9,999,251.9
	 M999,278.5c-6.2,0-11.2-4.9-11.2-10.9c0-6,5-10.8,11.2-10.8c6.2,0,11.2,4.8,11.2,10.8C1010.2,273.6,1005.2,278.5,999,278.5"/>
<path d="M1042,266.8c1.7-1.5,2.6-3.6,2.6-6.2c0-5.3-4-8.7-10.5-8.7h-11.6c-0.9,0-1.7,0.7-1.7,1.7v28.2c0,0.9,0.7,1.7,1.7,1.7h11.6
	c7.4,0,11.8-3.5,11.8-9.3C1046.1,270.9,1044.6,268.3,1042,266.8 M1034.1,264.7h-8.1v-7.8h8.1c2.5,0,5.5,0.7,5.5,3.9
	C1039.6,263.4,1037.8,264.7,1034.1,264.7 M1026,269.7h8.1c2.6,0,6.9,0.6,6.9,4.3c0,3.7-3.7,4.5-6.9,4.5h-8.1V269.7z"/>
<path d="M1066.6,252.9c-0.3-0.6-0.9-1-1.5-1h-1.8c-0.7,0-1.2,0.4-1.5,1l-12.8,28.2c-0.2,0.5-0.2,1.1,0.1,1.6
	c0.3,0.5,0.8,0.8,1.4,0.8h1.9c0.7,0,1.3-0.4,1.5-1l3.2-7.1h14.4l3.2,7.1c0.3,0.6,0.9,1,1.5,1h1.9c0.6,0,1.1-0.3,1.4-0.8
	c0.3-0.5,0.3-1.1,0.1-1.6L1066.6,252.9z M1059.2,270.4l4.9-10.8l4.9,10.8H1059.2z"/>
<path d="M1087.9,251.9h-1.7c-0.9,0-1.7,0.7-1.7,1.7v28.2c0,0.9,0.7,1.7,1.7,1.7h1.7c0.9,0,1.7-0.7,1.7-1.7v-28.2
	C1089.5,252.6,1088.8,251.9,1087.9,251.9"/>
<path d="M1123.1,251.9h-1.7c-0.9,0-1.7,0.7-1.7,1.7v20.6l-15.8-21.6c-0.3-0.4-0.8-0.7-1.3-0.7h-2c-0.9,0-1.7,0.7-1.7,1.7v28.2
	c0,0.9,0.7,1.7,1.7,1.7h1.7c0.9,0,1.7-0.7,1.7-1.7v-20.6l15.8,21.5c0.3,0.4,0.8,0.7,1.3,0.7h2c0.9,0,1.7-0.7,1.7-1.7v-28.2
	C1124.7,252.6,1124,251.9,1123.1,251.9"/>
<path d="M759,202.9l-4.3-8.7c-1.4-2.9-5.1-4.2-7.9-2.6c-0.5,0.3-1.1,0.6-1.6,0.8c-2.4,1.1-5.1,1.6-8.2,1.6c-3.7,0-6.9-0.9-9.5-2.6
	c-2.6-1.7-4.6-4.2-6-7.4c-1.3-3.2-2-6.9-2-11.2v-38.5h29.2c3.2,0,5.9-2.6,5.9-5.9v-8.8c0-3.2-2.6-5.9-5.9-5.9h-29.2V91.5
	c0-3.2-2.6-5.9-5.9-5.9h-11.2c-3.2,0-5.9,2.6-5.9,5.9v22.4h-10.6c-3.2,0-5.9,2.6-5.9,5.9v8.8c0,3.2,2.6,5.9,5.9,5.9h10.6V173
	c0,8,1.6,15.3,4.7,21.8c3.1,6.6,7.6,11.8,13.4,15.6c5.8,3.8,12.8,5.8,20.8,5.8c6.5,0,12.1-1.1,16.8-3.3c1.5-0.7,3-1.5,4.4-2.3
	C759.4,209,760.4,205.7,759,202.9z"/>
<path d="M549.5,111.9c-12.7,0-22.4,2.3-34.3,7.8c-2.9,1.4-4.2,5-2.7,7.9l3.8,7.9c1.3,2.7,4.4,3.7,7.2,2.7c8.9-3.1,14.9-5,24.9-5
	c11.4,0,24.5,6.4,24.5,19.4l0,3.1c-10.5-3.3-18.2-4.9-31.7-4.9c-20.4,0-39.2,10.7-39.2,32c0,21.3,15.8,33.3,35.2,33.3
	c13.1,0,26.7-4.4,35.9-13.7v5.7c0,3.2,2.5,5.8,5.7,5.8h11.6c3.1,0,5.7-2.6,5.7-5.8v-52.5C596,123.3,567.6,111.9,549.5,111.9z
	 M572.9,174.4l0.2,8.3c-5,8.4-16.3,14.4-29.7,14.4c-13,0-18.6-7-18.6-14.2c0-9.8,7-14.8,21.4-14.8
	C557.7,168.2,567.6,171.4,572.9,174.4z"/>
<path d="M447.1,216.2c28.9,0,45-15.3,45-43.7v-52.8c0-3.2-2.6-5.9-5.9-5.9h-11.3c-3.2,0-5.9,2.6-5.9,5.9v52.5c0,16.3-9.9,23-22,23
	s-22-6.8-22-23v-52.5c0-3.2-2.6-5.9-5.9-5.9H408c-3.2,0-5.9,2.6-5.9,5.9v52.8C402.1,198.7,417.8,216.2,447.1,216.2z"/>
<path d="M289,190.3c4.5,8,10.7,14.3,18.5,19c7.8,4.7,16.5,7,26,7c5.3,0,10.4-0.8,15.4-2.3c4.9-1.5,9.5-3.7,13.7-6.6
	c0.6-0.4,1.1-0.8,1.6-1.2v32.3c0,3.1,2.5,5.6,5.6,5.6h11.6c3.1,0,5.6-2.5,5.6-5.6l0-97.3c0-2.5-1-4.9-2.4-7
	c-9.3-14.1-29.9-22.6-46.7-22.6c-11.7,0-22.4,2.3-30.2,7c-7.8,4.6-14,11-18.6,18.9c-4.6,8-6.9,16.8-6.9,26.4
	C282.3,173.5,284.5,182.3,289,190.3z M309.5,148.6c2.8-4.8,6.7-8.6,11.5-11.5c4.8-2.9,10-4.3,15.6-4.3c12.8,0,22,5.4,27.7,12.4v33.6
	c-0.1,0.2-0.2,0.4-0.3,0.7c-2.8,4.8-6.5,8.7-11.4,11.5c-4.8,2.8-10.1,4.2-16,4.2c-5.6,0-10.8-1.4-15.6-4.3
	c-4.8-2.9-8.7-6.7-11.5-11.5c-2.8-4.8-4.2-9.9-4.2-15.5C305.3,158.5,306.7,153.4,309.5,148.6z"/>
<path d="M668.6,111.9c-19.4,0-40.5,6.5-55.4,16.5c-1.4,0.9-2.1,2.5-2.1,4.1l0,76c0,3.1,2.5,5.6,5.6,5.6h12.1c3.1,0,5.6-2.5,5.6-5.6
	v-65.6c10.9-6.3,23.9-8.7,34.6-9c3-0.1,5.4-2.5,5.4-5.5l0-10.9C674.3,114.3,671.7,111.9,668.6,111.9z"/>
<path d="M796.1,192.4l52.1-55c1.6-1.7,2.5-3.9,2.5-6.3v-11.4c0-3.2-2.6-5.9-5.9-5.9h-71.5c-3.2,0-5.9,2.6-5.9,5.9v9.9
	c0,3.2,2.6,5.9,5.9,5.9h48l-52.2,55c-1.6,1.7-2.5,3.9-2.5,6.3v11.4c0,3.2,2.6,5.9,5.9,5.9h72.5c3.2,0,5.9-2.6,5.9-5.9v-9.9
	c0-3.2-2.6-5.9-5.9-5.9H796.1z"/>
<path d="M1036,119.6v88.9c0,3.1-2.5,5.6-5.6,5.6h-11.6c-3.1,0-5.6-2.5-5.6-5.6v-88.9c0-3.1,2.5-5.6,5.6-5.6h11.6
	C1033.5,114,1036,116.5,1036,119.6z"/>
<g>
	<path d="M1017.8,76.8h13.6c3,0,5.5,2.5,5.5,5.5v10.8c0,3-2.5,5.5-5.5,5.5h-13.6c-3,0-5.5-2.5-5.5-5.5V82.3
		C1012.3,79.3,1014.7,76.8,1017.8,76.8z"/>
</g>
<path d="M1124.1,202.9l-4.3-8.7c-1.4-2.9-5-4.2-7.9-2.6c-0.5,0.3-1.1,0.6-1.6,0.8c-2.4,1.1-5.1,1.6-8.2,1.6c-3.7,0-6.9-0.9-9.5-2.6
	c-2.6-1.7-4.6-4.2-6-7.4c-1.3-3.2-2-6.9-2-11.2v-38.5h29.2c3.2,0,5.8-2.6,5.8-5.8v-8.8c0-3.2-2.6-5.8-5.8-5.8h-29.2V91.5
	c0-3.2-2.6-5.8-5.8-5.8h-11.1c-3.2,0-5.8,2.6-5.8,5.8v22.4h-10.6c-3.2,0-5.8,2.6-5.8,5.8v8.8c0,3.2,2.6,5.8,5.8,5.8h10.6v38.6
	c0,8,1.6,15.2,4.7,21.8c3.1,6.6,7.6,11.8,13.4,15.6c5.8,3.8,12.8,5.8,20.8,5.8c6.5,0,12.1-1.1,16.8-3.3c1.5-0.7,3-1.5,4.4-2.3
	C1124.5,209,1125.5,205.6,1124.1,202.9z"/>
<path d="M994.6,81.3v127.1c0,3.1-2.5,5.6-5.6,5.6h-11.8c-3.1,0-5.6-2.5-5.6-5.6V81.3c0-3.1,2.5-5.6,5.6-5.6H989
	C992.1,75.8,994.6,78.3,994.6,81.3z"/>
<path d="M906.4,111.7c-28.8,0-53.2,22.1-53.2,52.3c0,29.2,23.1,52.3,53.2,52.3s53.2-23.1,53.2-52.3
	C959.6,133.8,935.2,111.7,906.4,111.7z M906.4,194.8c-16.9,0-30.7-13.9-30.7-30.7c0-17.9,14.9-30.7,30.7-30.7s30.7,12.8,30.7,30.7
	C937.1,180.9,923.4,194.8,906.4,194.8z"/>
</svg>
